<?xml version="1.0" encoding="utf-8"?>
<!-- Generator: Adobe Illustrator 17.1.0, SVG Export Plug-In . SVG Version: 6.00 Build 0)  -->
<!DOCTYPE svg PUBLIC "-//W3C//DTD SVG 1.0//EN" "http://www.w3.org/TR/2001/REC-SVG-20010904/DTD/svg10.dtd">
<svg version="1.0" id="레이어_1" xmlns="http://www.w3.org/2000/svg" xmlns:xlink="http://www.w3.org/1999/xlink" x="0px"
	 y="0px" viewBox="0 0 24 24" enable-background="new 0 0 24 24" xml:space="preserve">
<path d="M15.6,4.7c-1.4,0-2.7,0.6-3.6,1.7c-0.9-1-2.2-1.7-3.6-1.7C5.9,4.7,4,6.6,4,9.1c0,3,2.7,5.5,6.8,9.2l1.2,1l1.2-1.1
	c4.1-3.7,6.8-6.2,6.8-9.2C20,6.6,18.1,4.7,15.6,4.7z M12.1,17.1L12.1,17.1h-0.2c-3.8-3.4-6.3-5.7-6.3-8c0-1.6,1.2-2.8,2.8-2.8
	c1.2,0,2.4,0.8,2.9,1.9h1.5c0.4-1.1,1.6-1.9,2.8-1.9c1.6,0,2.8,1.2,2.8,2.8C18.4,11.4,15.9,13.7,12.1,17.1z"/>
</svg>
