<?xml version="1.0" encoding="utf-8"?>
<!-- Generator: Adobe Illustrator 17.1.0, SVG Export Plug-In . SVG Version: 6.00 Build 0)  -->
<!DOCTYPE svg PUBLIC "-//W3C//DTD SVG 1.1//EN" "http://www.w3.org/Graphics/SVG/1.1/DTD/svg11.dtd">
<svg version="1.1" id="Capa_1" xmlns="http://www.w3.org/2000/svg" xmlns:xlink="http://www.w3.org/1999/xlink" x="0px" y="0px"
	 viewBox="0 0 24 24" enable-background="new 0 0 24 24" xml:space="preserve">
<path d="M8.7,12.4l-1,3c-0.1,0.3,0,0.6,0.2,0.7c0.1,0.1,0.3,0.2,0.5,0.2c0.1,0,0.2,0,0.2,0l3-1c0.1,0,0.2-0.1,0.3-0.2l6.8-6.8
	c0.6-0.6,0.6-1.6,0-2.2l-0.9-0.9c-0.6-0.6-1.6-0.6-2.2,0l-6.8,6.8C8.8,12.2,8.8,12.3,8.7,12.4z M16.3,8.6l-1-1l1.4-1.4
	c0,0,0,0,0.1,0l0.9,0.9c0,0,0,0.1,0,0.1L16.3,8.6z M14.4,8.7l1,1L11,13.9l-1.4,0.5l0.5-1.4L14.4,8.7z"/>
<path d="M19.2,10.3c-0.4,0-0.8,0.4-0.8,0.8v6.9c0,0.2-0.2,0.4-0.4,0.4H6.1c-0.2,0-0.4-0.2-0.4-0.4V6.1c0-0.2,0.2-0.4,0.4-0.4h6.9
	c0.4,0,0.8-0.4,0.8-0.8S13.4,4,12.9,4H6.1C4.9,4,4,4.9,4,6.1v11.9C4,19.1,4.9,20,6.1,20h11.9c1.1,0,2.1-0.9,2.1-2.1v-6.9
	C20,10.6,19.6,10.3,19.2,10.3z"/>
</svg>
