<?xml version="1.0" encoding="utf-8"?>
<!-- Generator: Adobe Illustrator 17.1.0, SVG Export Plug-In . SVG Version: 6.00 Build 0)  -->
<!DOCTYPE svg PUBLIC "-//W3C//DTD SVG 1.1//EN" "http://www.w3.org/Graphics/SVG/1.1/DTD/svg11.dtd">
<svg version="1.1" id="레이어_1" xmlns="http://www.w3.org/2000/svg" xmlns:xlink="http://www.w3.org/1999/xlink" x="0px"
	 y="0px" viewBox="0 0 24 24" enable-background="new 0 0 24 24" xml:space="preserve">
<path d="M18,12.6c1.8,0,3.3-1.5,3.3-3.3S19.8,6,18,6s-3.3,1.5-3.3,3.3C14.8,11.2,16.3,12.6,18,12.6z M18,7.4c1.1,0,2,0.9,2,2
	s-0.9,2-2,2s-2-0.9-2-2C16.1,8.3,17,7.4,18,7.4z"/>
<path d="M18,14.5c-0.7,0-1.6,0.1-2.5,0.4c0.3,0.3,0.5,0.7,0.7,1.2c0.6-0.1,1.3-0.2,1.8-0.2c1.8,0,4.6,0.9,4.6,2v1.5h-6.1V20
	c0,0.3-0.1,0.6-0.2,0.8h7c0.4,0,0.7-0.3,0.7-0.7v-2.3C23.9,15.4,20,14.5,18,14.5z"/>
<path d="M7.1,11.2c2.2,0,4-1.8,4-4s-1.8-4-4-4s-4,1.8-4,4S4.9,11.2,7.1,11.2z M7.1,4.8c1.3,0,2.4,1.1,2.4,2.4S8.4,9.6,7.1,9.6
	S4.7,8.5,4.7,7.2S5.8,4.8,7.1,4.8z"/>
<path d="M13.4,15.2c-1.5-1.4-4.5-2-6.2-2c-2.4,0-7.2,1.2-7.2,4v2.6c0,0.4,0.4,0.8,0.8,0.8h11.1h1.8c0.4,0,0.8-0.4,0.8-0.8v-0.4v-2.1
	c0-0.3-0.1-0.7-0.2-0.9C14,15.9,13.7,15.5,13.4,15.2z M11.2,19.1H1.5v-1.8c0-1.3,3.5-2.4,5.6-2.4c1.5,0,3.6,0.5,4.8,1.3
	c0.5,0.3,0.8,0.6,0.8,1v0.1v1.8h-0.3H11.2z"/>
</svg>
