<?xml version="1.0" encoding="utf-8"?>
<!-- Generator: Adobe Illustrator 17.1.0, SVG Export Plug-In . SVG Version: 6.00 Build 0)  -->
<!DOCTYPE svg PUBLIC "-//W3C//DTD SVG 1.1//EN" "http://www.w3.org/Graphics/SVG/1.1/DTD/svg11.dtd">
<svg version="1.1" id="레이어_1" xmlns="http://www.w3.org/2000/svg" xmlns:xlink="http://www.w3.org/1999/xlink" x="0px"
	 y="0px" viewBox="0 0 320 320" enable-background="new 0 0 320 320" xml:space="preserve">
<g>
	<linearGradient id="SVGID_1_" gradientUnits="userSpaceOnUse" x1="76.4226" y1="240.6823" x2="283.9773" y2="33.1276">
		<stop  offset="0" style="stop-color:#FA8BFF"/>
		<stop  offset="0.52" style="stop-color:#2BD2FF"/>
		<stop  offset="0.9" style="stop-color:#2BFF88"/>
	</linearGradient>
	<path fill="url(#SVGID_1_)" d="M74.3,228c-2,6,0,12,4,14c2,2,6,4,9.9,4c2,0,4,0,4,0l59.6-20c2,0,141-140,141-140
		c11.9-12,11.9-32,0-44l-17.9-18c-11.9-12-31.8-12-43.7,0c0,0-135.1,142-137.1,144L74.3,228z M253,44c0,0,0,0,2,0l18,18v2l-27.9,28
		l-19.9-20L253,44z M121.9,180l85.4-86l19.9,20l-87.4,84L112,208L121.9,180z"/>
	<linearGradient id="SVGID_2_" gradientUnits="userSpaceOnUse" x1="12" y1="307.9585" x2="252.0968" y2="67.8617">
		<stop  offset="0" style="stop-color:#FA8BFF"/>
		<stop  offset="0.52" style="stop-color:#2BD2FF"/>
		<stop  offset="0.9" style="stop-color:#2BFF88"/>
	</linearGradient>
	<path fill="url(#SVGID_2_)" d="M302,126c-7.9,0-16,8-16,16v138c0,4-3.2,8-7.1,8H42.5c-4,0-8.5-4-8.5-8V42c0-4,4.5-8,8.5-8h137.1
		c7.9,0,15.9-8,15.9-16c0-8-7.9-18-17.9-18H42.5C18.6,0,0,18,0,42v238c0,22,18.6,40,42.5,40h236.4c21.8,0,41.1-18,41.1-42V140
		C318.4,132,310,126,302,126z"/>
</g>
</svg>
